# xmcd
#
# Track frame offsets:
#	183
#	12945
#	28820
#	40458
#	50945
#	58820
#	71545
#	86920
#	95133
#	107658
#	118545
#	127045
#	141495
#	156208
#	169158
#	184658
#	196545
#	207158
#	233145
#	248145
#	263195
#	275395
#	287433
#	303195
#
# Disc length: 4286 seconds
#
# Revision: 0
# Processed by: cddbd v1.4PL0 Copyright (c) Steve Scherf et al.
# Submitted via: EasyCDDAExtractor 4.6.0.1
#
DISCID=6510bc18
DTITLE=Boxcar Wille - Boxcar Willie and Guests
DYEAR=1900
DGENRE=Country
TTITLE0=Spirit Of America
TTITLE1=Old Kentucky Home
TTITLE2=Dixie
TTITLE3=Thank You Old Flag Of Mine
TTITLE4=America
TTITLE5=North To Alaska
TTITLE6=Play The Star Spangled Banner Over Me
TTITLE7=Battle Hymn Of The Republic
TTITLE8=Star Spangled Banner Waving Somewhere
TTITLE9=Yankee Doodle
TTITLE10=America The Beautiful
TTITLE11=Battle Of New Orleans
TTITLE12=Freightline Fever
TTITLE13=Truck Drivin' Man
TTITLE14=Phantom 309
TTITLE15=Truck Drivin' Son Of A Gun
TTITLE16=Six Days On The Road
TTITLE17=Teddy Bear
TTITLE18=Whiteline Fever
TTITLE19=Girl On A Billboard
TTITLE20=How Fast Them Trucks Will Go
TTITLE21=Trucker's Prayer
TTITLE22=Forty Acres
TTITLE23=Convoy
EXTD=
EXTT0=
EXTT1=
EXTT2=
EXTT3=
EXTT4=
EXTT5=
EXTT6=
EXTT7=
EXTT8=
EXTT9=
EXTT10=
EXTT11=
EXTT12=
EXTT13=
EXTT14=
EXTT15=
EXTT16=
EXTT17=
EXTT18=
EXTT19=
EXTT20=
EXTT21=
EXTT22=
EXTT23=
PLAYORDER=
